<svg width="220" height="225" viewBox="0 0 220 225" fill="none" xmlns="http://www.w3.org/2000/svg">
<path d="M77.4455 187.268L69.4215 202.738V211H64.6615V202.738L56.6035 187.268H61.9755L67.0755 198.114L72.1415 187.268H77.4455ZM97.7007 201.174C97.7007 201.854 97.6554 202.466 97.5647 203.01H83.7947C83.9081 204.37 84.3841 205.435 85.2227 206.206C86.0614 206.977 87.0927 207.362 88.3167 207.362C90.0847 207.362 91.3427 206.603 92.0907 205.084H97.2247C96.6807 206.897 95.6381 208.393 94.0967 209.572C92.5554 210.728 90.6627 211.306 88.4187 211.306C86.6054 211.306 84.9734 210.909 83.5227 210.116C82.0947 209.3 80.9727 208.155 80.1567 206.682C79.3634 205.209 78.9667 203.509 78.9667 201.582C78.9667 199.633 79.3634 197.921 80.1567 196.448C80.9501 194.975 82.0607 193.841 83.4887 193.048C84.9167 192.255 86.5601 191.858 88.4187 191.858C90.2094 191.858 91.8074 192.243 93.2127 193.014C94.6407 193.785 95.7401 194.884 96.5107 196.312C97.3041 197.717 97.7007 199.338 97.7007 201.174ZM92.7707 199.814C92.7481 198.59 92.3061 197.615 91.4447 196.89C90.5834 196.142 89.5294 195.768 88.2827 195.768C87.1041 195.768 86.1067 196.131 85.2907 196.856C84.4974 197.559 84.0101 198.545 83.8287 199.814H92.7707ZM111.613 191.892C113.857 191.892 115.67 192.606 117.053 194.034C118.436 195.439 119.127 197.411 119.127 199.95V211H114.367V200.596C114.367 199.1 113.993 197.955 113.245 197.162C112.497 196.346 111.477 195.938 110.185 195.938C108.87 195.938 107.828 196.346 107.057 197.162C106.309 197.955 105.935 199.1 105.935 200.596V211H101.175V192.164H105.935V194.51C106.57 193.694 107.374 193.059 108.349 192.606C109.346 192.13 110.434 191.892 111.613 191.892ZM134.092 191.892C136.336 191.892 138.149 192.606 139.532 194.034C140.914 195.439 141.606 197.411 141.606 199.95V211H136.846V200.596C136.846 199.1 136.472 197.955 135.724 197.162C134.976 196.346 133.956 195.938 132.664 195.938C131.349 195.938 130.306 196.346 129.536 197.162C128.788 197.955 128.414 199.1 128.414 200.596V211H123.654V192.164H128.414V194.51C129.048 193.694 129.853 193.059 130.828 192.606C131.825 192.13 132.913 191.892 134.092 191.892ZM163.642 201.174C163.642 201.854 163.597 202.466 163.506 203.01H149.736C149.849 204.37 150.325 205.435 151.164 206.206C152.003 206.977 153.034 207.362 154.258 207.362C156.026 207.362 157.284 206.603 158.032 205.084H163.166C162.622 206.897 161.579 208.393 160.038 209.572C158.497 210.728 156.604 211.306 154.36 211.306C152.547 211.306 150.915 210.909 149.464 210.116C148.036 209.3 146.914 208.155 146.098 206.682C145.305 205.209 144.908 203.509 144.908 201.582C144.908 199.633 145.305 197.921 146.098 196.448C146.891 194.975 148.002 193.841 149.43 193.048C150.858 192.255 152.501 191.858 154.36 191.858C156.151 191.858 157.749 192.243 159.154 193.014C160.582 193.785 161.681 194.884 162.452 196.312C163.245 197.717 163.642 199.338 163.642 201.174ZM158.712 199.814C158.689 198.59 158.247 197.615 157.386 196.89C156.525 196.142 155.471 195.768 154.224 195.768C153.045 195.768 152.048 196.131 151.232 196.856C150.439 197.559 149.951 198.545 149.77 199.814H158.712Z" fill="#F9F9F9"/>
<path d="M130.905 89.3763C130.454 90.8677 129.649 92.8995 128.183 94.6503C126.508 96.6388 125.204 96.8117 123.77 97.8925C119.728 100.983 117.779 109.154 119.051 110.71C120.275 112.223 123.206 106.084 130.486 104.463C134.432 103.577 137.202 104.571 139.731 101.545C141.228 99.7513 140.536 99.0813 142.05 96.9847C144.949 92.9643 147.993 94.8016 153.678 90.6948C155.337 89.4844 154.982 89.3979 157.012 87.9281C161.07 84.9669 163.019 84.9453 163.534 82.8055C164.05 80.7089 162.633 78.7852 163.534 77.4451C164.114 76.5805 165.016 76.9263 165.354 75.9753C165.693 74.981 164.807 74.2461 164.984 73.0573C165.274 71.112 167.915 70.9175 167.98 69.5341C168.012 68.7776 167.223 68.475 166.433 67.4591C164.324 64.7573 163.873 59.1159 165.532 56.5005C166.176 55.463 166.578 55.8305 167.158 54.793C168.527 52.3505 167.48 48.3518 166.981 46.5146C165.934 42.6672 164.71 41.3919 163.357 38.474C159.83 30.9305 162.488 27.6883 159.54 23.1276C157.141 19.4099 155.111 21.1823 149.474 15.9516C146.817 13.4875 146.849 12.6878 144.675 10.4831C138.104 3.78257 130.132 3.0909 125.445 2.70184C120.533 2.29116 114.204 2.76669 114.01 2.76669C112.448 2.11825 110.161 1.49142 107.488 1.96695C106.038 2.22632 106.231 2.50731 104.363 2.9396C100.836 3.76096 98.3397 4.34455 96.0688 2.9396C95.4729 2.57215 94.4905 1.81564 93.347 2.20471C92.7189 2.42085 92.3324 2.89637 92.123 3.11252C90.448 4.94976 88.6281 3.60965 85.0527 4.75523C85.0527 4.75523 84.795 4.84168 80.0117 7.30575C79.593 7.39221 78.9165 7.47866 78.1113 7.47866C76.8228 7.50028 76.2753 7.28413 75.7921 7.30575C74.0366 7.37059 73.4085 10.6992 71.9429 12.6662C68.593 17.1188 63.0527 11.7367 59.8799 15.8867C58.1244 18.1995 57.7701 22.544 58.8814 24.8352C59.7028 26.4995 60.798 26.0456 63.1493 28.3584C65.3075 30.4982 65.0337 31.5357 66.6925 33.1136C69.8653 36.118 74.3104 35.5344 74.3265 35.275C74.3587 35.0589 71.6691 33.9349 71.041 35.0589C70.5739 35.9018 71.4597 37.5445 71.041 37.9768C70.7189 38.3227 70.1069 37.35 69.0439 37.0042C67.0146 36.3557 65.2269 38.582 64.8726 37.9768C64.6632 37.631 65.3719 36.9826 65.4202 35.7938C65.4846 33.9998 64.0029 31.9464 62.4407 31.406C61.2811 31.0169 60.6691 31.6654 59.9766 30.9089C59.2679 30.1524 59.59 29.1365 59.0747 28.4664C57.7701 26.8453 53.4539 30.3901 53.2928 30.0227C53.164 29.7201 56.1918 28.1422 56.53 25.3107C56.7877 23.1709 55.4348 20.7716 54.7101 20.9229C53.5988 21.1823 54.7101 27.4073 51.8111 30.9089C50.9575 31.9248 50.877 31.3844 49.4597 32.8542C47.1083 35.275 45.4656 38.6901 45.4656 38.6901C45.5783 39.3818 45.836 40.4841 46.3675 41.6081C47.1244 43.2076 47.7203 43.3156 47.9941 44.2883C48.3646 45.5636 47.7365 46.6659 46.3675 50.1242C44.8536 53.95 44.0966 55.9169 44.1933 57.43C44.3382 59.7427 45.3851 60.0669 45.2884 62.2932C45.1918 64.5412 44.0805 64.6276 43.8389 66.9188C43.4846 70.269 45.4656 73.9219 45.4656 73.9219C45.7072 76.0834 46.2064 79.4552 47.4627 83.2378C49.0249 87.9714 51.0864 91.3649 50.877 91.581C50.716 91.7539 49.2504 89.7005 49.4114 89.4628C49.6047 89.1386 52.0205 92.4672 56.1757 94.4557C58.5593 95.6013 60.5564 95.8391 60.5242 96.3146C60.4919 96.8117 58.3016 97.1576 58.2533 96.963C58.205 96.6821 62.4568 93.7209 64.6955 95.6878C66.6442 97.3953 65.4846 101.394 67.7716 103.469C68.0132 103.685 68.0132 103.642 71.5886 104.679C74.6969 105.609 75.1801 105.782 76.1142 105.782C77.9502 105.782 77.9824 105.09 79.899 104.809C83.8609 104.226 87.3075 106.517 88.3382 107.554C88.7892 108.008 89.2079 108.332 90.1098 109.024C92.6545 110.969 95.2797 113.001 96.0527 112.072C96.9063 111.034 95.2958 106.56 94.3455 104.571C93.8624 103.555 93.3953 102.907 92.3485 100.724C92.0264 100.032 91.9297 99.8162 91.6881 99.5136C90.9956 98.649 90.3836 98.757 88.612 98.1302C87.1464 97.6115 86.2767 97.0711 86.0674 96.9414C85.3587 96.4875 84.9561 96.2498 84.5695 95.8175C84.0381 95.2339 83.5066 94.3261 82.7335 90.3922C82.2182 87.7768 81.9444 85.5722 81.8477 85.5938C81.7511 85.6154 81.8638 87.2581 81.7511 87.2797C81.6706 87.3013 81.5578 86.199 81.3968 86.199C81.284 86.199 81.2035 86.761 81.123 87.4742C81.0425 87.5391 80.9297 87.6688 80.8492 87.8633C80.8009 88.0146 80.8009 88.1011 80.7526 88.1227C80.6398 88.1659 80.4466 87.9065 80.3983 87.7985C80.0117 86.9987 81.6545 84.3617 81.735 84.4482C81.8155 84.5347 80.06 88.1659 79.7701 87.9714C79.6574 87.9065 79.8507 87.3013 79.7057 86.2638C79.6735 85.9612 79.5608 85.1182 79.3514 85.0966C78.9971 85.0534 78.5622 87.3446 78.4978 87.3229C78.4817 87.3229 78.53 86.9987 78.5783 86.7393C78.8199 85.3776 78.9327 84.9886 78.836 84.8805C78.6911 84.7508 78.1435 85.4641 78.1274 85.4425C78.1113 85.3992 78.7555 84.7076 78.6589 84.4482C78.5783 84.2104 77.918 84.3617 77.918 84.2537C77.918 84.232 77.9663 84.1456 77.9824 84.1024C77.9985 84.0591 78.0146 84.0591 78.0146 84.0159C78.0469 83.7133 77.6925 83.562 77.3865 83C77.2577 82.7623 77.306 82.7839 77.0161 82.1138C76.8551 81.7248 76.7262 81.4654 76.6779 81.3789C76.3075 80.5792 76.1303 79.1094 76.1786 77.7909C76.2108 76.7318 76.243 76.1914 76.5007 75.6294C77.1127 74.2893 78.4012 74.0516 78.5783 74.03C79.8023 73.8354 80.1567 74.8297 80.8009 74.419C81.7672 73.8138 81.9766 70.9823 81.7028 69.4909C81.6384 69.1667 81.5417 68.8425 81.5256 68.2589C81.4773 67.2214 81.7028 66.7242 81.4612 66.3784C81.2357 66.0326 80.9297 66.3136 80.6398 66.011C80.1889 65.557 80.4305 64.2818 80.511 63.2443C80.5915 62.25 80.5754 60.8235 80.1406 59.0294C80.8492 58.2945 81.1713 57.5597 81.3163 56.9977C81.5095 56.2844 81.4773 55.7224 81.8477 55.182C82.1215 54.793 82.347 54.793 82.7818 54.5336C83.5227 54.0797 84.022 53.2584 85.0366 51.594C85.5842 50.7078 85.6647 50.4485 86.0029 50.2539C86.5183 49.9513 86.7277 50.2755 87.5168 50.0594C87.8712 49.9513 88.4671 49.8 88.9341 49.1732C89.3529 48.6112 89.2562 48.1789 89.5944 47.8763C90.0776 47.444 90.7701 47.8115 91.2211 48.0492C91.8009 48.3302 94.8126 49.7568 97.1157 48.6977C97.7599 48.3951 97.7277 48.1789 98.3236 48.006C99.5476 47.6386 99.9663 48.4383 101.674 48.7841C102.624 48.9787 104.331 49.3245 105.474 48.4599C105.619 48.3518 105.941 48.0925 106.392 48.0709C106.924 48.0492 107.278 48.3951 107.665 48.6328C108.148 48.9571 108.679 49.0435 109.758 49.2164C110.435 49.3245 112.013 49.4974 114.01 48.9138C114.622 48.7409 114.51 48.6977 114.977 48.5896C115.798 48.3951 116.297 48.4383 118.584 48.6544C120.356 48.8274 120.581 48.849 121.016 48.9571C121.95 49.1948 121.982 49.3245 122.675 49.4542C124.092 49.6703 124.334 49.13 125.187 49.4974C125.493 49.6271 125.977 50.1675 126.943 51.2482C127.909 52.3289 128.199 52.8044 128.908 53.107C129.488 53.3664 129.536 53.1503 129.906 53.4313C130.663 54.0149 131.082 55.3982 130.937 56.5654C130.889 56.8896 130.84 56.9328 130.695 57.4516C129.987 59.9805 130.486 61.407 129.939 62.5742C129.874 62.7039 129.713 63.0281 129.761 63.4172C129.794 63.763 129.955 63.8279 130.003 64.1089C130.1 64.606 129.713 64.9951 129.455 65.6435C129.149 66.4433 129.182 67.3078 129.246 67.7185C129.423 68.9938 130.261 68.8857 130.695 70.2258C131.146 71.6307 130.695 73.1438 130.937 73.2302C131.13 73.2951 131.469 72.2576 131.742 72.3656C131.807 72.3873 131.823 72.4521 131.839 72.4737C132.193 73.0573 134.818 70.5284 136.042 71.3714C136.477 71.674 136.735 72.4089 136.977 73.1654C137.089 73.5328 137.266 74.0083 137.283 74.6352C137.315 75.6078 136.977 76.3643 136.799 76.7534C136.187 78.0935 134.142 80.7953 131.13 83.9511" fill="black"/>
<path d="M130.905 89.3763C130.454 90.8677 129.649 92.8995 128.183 94.6503C126.508 96.6388 125.204 96.8117 123.77 97.8925C119.728 100.983 117.779 109.154 119.051 110.71C120.275 112.223 123.206 106.084 130.486 104.463C134.432 103.577 137.202 104.571 139.731 101.545C141.228 99.7513 140.536 99.0813 142.05 96.9847C144.949 92.9643 147.993 94.8016 153.678 90.6948C155.337 89.4844 154.982 89.3979 157.012 87.9281C161.07 84.9669 163.019 84.9453 163.534 82.8055C164.05 80.7089 162.633 78.7852 163.534 77.4451C164.114 76.5805 165.016 76.9263 165.354 75.9753C165.693 74.981 164.807 74.2461 164.984 73.0573C165.274 71.112 167.915 70.9175 167.98 69.5341C168.012 68.7776 167.223 68.475 166.433 67.4591C164.324 64.7573 163.873 59.1159 165.532 56.5005C166.176 55.463 166.578 55.8305 167.158 54.793C168.527 52.3505 167.48 48.3518 166.981 46.5146C165.934 42.6672 164.71 41.3919 163.357 38.474C159.83 30.9305 162.488 27.6883 159.54 23.1276C157.141 19.4099 155.111 21.1823 149.474 15.9516C146.817 13.4875 146.849 12.6878 144.675 10.4831C138.104 3.78257 130.132 3.0909 125.445 2.70184C120.533 2.29116 114.204 2.76669 114.01 2.76669C112.448 2.11825 110.161 1.49142 107.488 1.96695C106.038 2.22632 106.231 2.50731 104.363 2.9396C100.836 3.76096 98.3397 4.34455 96.0688 2.9396C95.4729 2.57215 94.4905 1.81564 93.347 2.20471C92.7189 2.42085 92.3324 2.89637 92.123 3.11252C90.448 4.94976 88.6281 3.60965 85.0527 4.75523C85.0527 4.75523 84.795 4.84168 80.0117 7.30575C79.593 7.39221 78.9165 7.47866 78.1113 7.47866C76.8228 7.50028 76.2753 7.28413 75.7921 7.30575C74.0366 7.37059 73.4085 10.6992 71.9429 12.6662C68.593 17.1188 63.0527 11.7367 59.8799 15.8867C58.1244 18.1995 57.7701 22.544 58.8814 24.8352C59.7028 26.4995 60.798 26.0456 63.1493 28.3584C65.3075 30.4982 65.0337 31.5357 66.6925 33.1136C69.8653 36.118 74.3104 35.5344 74.3265 35.275C74.3587 35.0589 71.6691 33.9349 71.041 35.0589C70.5739 35.9018 71.4597 37.5445 71.041 37.9768C70.7189 38.3227 70.1069 37.35 69.0439 37.0042C67.0146 36.3557 65.2269 38.582 64.8726 37.9768C64.6633 37.631 65.3719 36.9826 65.4202 35.7938C65.4846 33.9998 64.0029 31.9464 62.4407 31.406C61.2811 31.0169 60.6691 31.6654 59.9766 30.9089C59.2679 30.1524 59.59 29.1365 59.0747 28.4664C57.7701 26.8453 53.4539 30.3901 53.2928 30.0227C53.164 29.7201 56.1918 28.1422 56.53 25.3107C56.7877 23.1709 55.4348 20.7716 54.7101 20.9229C53.5988 21.1823 54.7101 27.4073 51.8111 30.9089C50.9575 31.9248 50.877 31.3844 49.4597 32.8542C47.1083 35.275 45.4656 38.6901 45.4656 38.6901C45.5783 39.3818 45.836 40.4841 46.3675 41.6081C47.1244 43.2076 47.7203 43.3156 47.9941 44.2883C48.3646 45.5636 47.7365 46.6659 46.3675 50.1242C44.8536 53.95 44.0966 55.9169 44.1933 57.43C44.3382 59.7427 45.3851 60.0669 45.2884 62.2932C45.1918 64.5412 44.0805 64.6276 43.8389 66.9188C43.4846 70.269 45.4656 73.9219 45.4656 73.9219C45.7072 76.0834 46.2064 79.4552 47.4627 83.2378C49.0249 87.9714 51.0864 91.3649 50.877 91.581C50.716 91.7539 49.2504 89.7005 49.4114 89.4628C49.6047 89.1386 52.0205 92.4672 56.1757 94.4557C58.5593 95.6013 60.5564 95.8391 60.5242 96.3146C60.4919 96.8117 58.3016 97.1576 58.2533 96.963C58.205 96.682 62.4568 93.7209 64.6955 95.6878C66.6442 97.3953 65.4846 101.394 67.7716 103.469C68.0132 103.685 68.0132 103.642 71.5886 104.679C74.6969 105.609 75.1801 105.782 76.1142 105.782C77.9502 105.782 77.9824 105.09 79.899 104.809C83.8609 104.226 87.3075 106.517 88.3382 107.554C88.7892 108.008 89.2079 108.332 90.1098 109.024C92.6545 110.969 95.2797 113.001 96.0527 112.072C96.9063 111.034 95.2958 106.56 94.3455 104.571C93.8624 103.555 93.3953 102.907 92.3485 100.724C92.0264 100.032 91.9297 99.8162 91.6881 99.5136C90.9956 98.649 90.3836 98.757 88.612 98.1302C87.1464 97.6115 86.2767 97.0711 86.0674 96.9414C85.3587 96.4875 84.9561 96.2498 84.5695 95.8175C84.0381 95.2339 83.5066 94.3261 82.7335 90.3922C82.2182 87.7768 81.9444 85.5722 81.8477 85.5938C81.7511 85.6154 81.8638 87.2581 81.7511 87.2797C81.6706 87.3013 81.5578 86.199 81.3968 86.199C81.284 86.199 81.2035 86.761 81.123 87.4742C81.0425 87.5391 80.9297 87.6688 80.8492 87.8633C80.8009 88.0146 80.8009 88.1011 80.7526 88.1227C80.6398 88.1659 80.4466 87.9065 80.3983 87.7985C80.0117 86.9987 81.6545 84.3617 81.735 84.4482C81.8155 84.5347 80.06 88.1659 79.7701 87.9714C79.6574 87.9065 79.8507 87.3013 79.7057 86.2638C79.6735 85.9612 79.5608 85.1182 79.3514 85.0966C78.9971 85.0534 78.5622 87.3445 78.4978 87.3229C78.4817 87.3229 78.53 86.9987 78.5783 86.7393C78.8199 85.3776 78.9327 84.9886 78.836 84.8805C78.6911 84.7508 78.1435 85.4641 78.1274 85.4425C78.1113 85.3992 78.7555 84.7076 78.6589 84.4482C78.5783 84.2104 77.918 84.3617 77.918 84.2537C77.918 84.232 77.9663 84.1456 77.9824 84.1024C77.9985 84.0591 78.0146 84.0591 78.0146 84.0159C78.0469 83.7133 77.6925 83.562 77.3865 83C77.2577 82.7623 77.306 82.7839 77.0161 82.1138C76.8551 81.7248 76.7262 81.4654 76.6779 81.3789C76.3075 80.5792 76.1303 79.1094 76.1786 77.7909C76.2108 76.7318 76.243 76.1914 76.5007 75.6294C77.1127 74.2893 78.4012 74.0516 78.5783 74.03C79.8023 73.8354 80.1567 74.8297 80.8009 74.419C81.7672 73.8138 81.9766 70.9823 81.7028 69.4909C81.6384 69.1667 81.5417 68.8425 81.5256 68.2589C81.4773 67.2214 81.7028 66.7242 81.4612 66.3784C81.2357 66.0326 80.9297 66.3136 80.6398 66.011C80.1889 65.557 80.4305 64.2818 80.511 63.2443C80.5915 62.25 80.5754 60.8235 80.1406 59.0294C80.8492 58.2945 81.1713 57.5597 81.3163 56.9977C81.5095 56.2844 81.4773 55.7224 81.8477 55.182C82.1215 54.793 82.347 54.793 82.7819 54.5336C83.5227 54.0797 84.022 53.2584 85.0366 51.594C85.5842 50.7078 85.6647 50.4485 86.0029 50.2539C86.5183 49.9513 86.7277 50.2755 87.5168 50.0594C87.8712 49.9513 88.4671 49.8 88.9341 49.1732C89.3529 48.6112 89.2562 48.1789 89.5944 47.8763C90.0776 47.444 90.7701 47.8115 91.2211 48.0492C91.8009 48.3302 94.8126 49.7568 97.1157 48.6977C97.7599 48.3951 97.7277 48.1789 98.3236 48.006C99.5476 47.6386 99.9663 48.4383 101.674 48.7841C102.624 48.9787 104.331 49.3245 105.474 48.4599C105.619 48.3518 105.941 48.0925 106.392 48.0708C106.924 48.0492 107.278 48.3951 107.665 48.6328C108.148 48.957 108.679 49.0435 109.758 49.2164C110.435 49.3245 112.013 49.4974 114.01 48.9138C114.622 48.7409 114.51 48.6977 114.977 48.5896C115.798 48.3951 116.297 48.4383 118.584 48.6544C120.356 48.8274 120.581 48.849 121.016 48.957C121.95 49.1948 121.982 49.3245 122.675 49.4542C124.092 49.6703 124.334 49.13 125.187 49.4974C125.493 49.6271 125.977 50.1675 126.943 51.2482C127.909 52.3289 128.199 52.8044 128.908 53.107C129.488 53.3664 129.536 53.1503 129.906 53.4313C130.663 54.0149 131.082 55.3982 130.937 56.5654C130.889 56.8896 130.84 56.9328 130.695 57.4516C129.987 59.9805 130.486 61.407 129.939 62.5742C129.874 62.7039 129.713 63.0281 129.761 63.4172C129.794 63.763 129.955 63.8279 130.003 64.1089C130.1 64.606 129.713 64.9951 129.455 65.6435C129.149 66.4432 129.182 67.3078 129.246 67.7185C129.423 68.9938 130.261 68.8857 130.695 70.2258C131.146 71.6307 130.695 73.1438 130.937 73.2302C131.13 73.2951 131.469 72.2576 131.742 72.3656C131.807 72.3873 131.823 72.4521 131.839 72.4737C132.193 73.0573 134.818 70.5284 136.042 71.3714C136.477 71.674 136.735 72.4089 136.977 73.1654C137.089 73.5328 137.266 74.0083 137.283 74.6352C137.315 75.6078 136.977 76.3643 136.799 76.7534C136.187 78.0935 134.142 80.7953 131.13 83.9511" stroke="#F2BE00" stroke-width="0.541667" stroke-miterlimit="10"/>
<path d="M91.3822 98.3463C94.2006 102.453 95.3441 106.43 95.8434 108.851C96.8902 113.866 97.1962 121.604 95.2475 122.663C95.022 122.771 94.8448 122.792 94.7482 122.792C89.9649 122.879 80.0278 126.705 77.1128 126.575C77.0322 126.575 76.0337 126.532 74.7614 126.813C74.3909 126.899 74.2138 126.942 74.1655 126.986C73.4729 128.045 80.7365 142.894 91.3983 150.783C108.647 163.536 127.652 152.75 129.858 151.453C130.309 151.194 139.908 145.358 144.047 135.761C144.723 134.205 147.204 128.434 146.173 127.18C145.996 126.964 145.754 126.942 145.625 126.942C141.051 126.618 134.19 124.5 133.659 124.327C133.24 124.197 132.838 124.024 132.838 124.024C132.129 123.743 131.63 123.462 131.565 123.419C131.018 123.117 128.65 122.468 121.902 121.106C121.58 120.653 117.231 114.406 118.681 106.322C119.373 102.496 121.129 100.011 122.272 98.5841C122.659 98.1086 122.981 97.7411 123.158 97.5034" fill="#6A3800"/>
<path d="M91.3822 98.3463C94.2006 102.453 95.3441 106.43 95.8434 108.851C96.8902 113.866 97.1962 121.604 95.2475 122.663C95.022 122.771 94.8448 122.792 94.7482 122.792C89.9649 122.879 80.0278 126.705 77.1128 126.575C77.0322 126.575 76.0337 126.532 74.7614 126.813C74.3909 126.899 74.2138 126.942 74.1655 126.986C73.4729 128.045 80.7365 142.894 91.3983 150.783C108.647 163.536 127.652 152.75 129.858 151.453C130.309 151.194 139.908 145.358 144.047 135.761C144.723 134.205 147.204 128.434 146.173 127.18C145.996 126.964 145.754 126.942 145.625 126.942C141.051 126.618 134.19 124.5 133.659 124.327C133.24 124.197 132.838 124.024 132.838 124.024C132.129 123.743 131.63 123.462 131.565 123.419C131.018 123.117 128.65 122.468 121.902 121.106C121.58 120.653 117.231 114.406 118.681 106.322C119.373 102.496 121.129 100.011 122.272 98.5841C122.659 98.1086 122.981 97.7411 123.158 97.5034" stroke="#F2BE00" stroke-width="0.541667" stroke-miterlimit="10" stroke-linecap="round" stroke-linejoin="round"/>
<path d="M100.337 116.092C100.836 117.605 101.561 119.485 102.656 121.452C103.671 123.268 104.717 124.673 105.587 125.689" stroke="black" stroke-width="0.541667" stroke-miterlimit="10" stroke-linecap="round" stroke-linejoin="round"/>
<path d="M74.1332 127.915C74.1009 127.829 73.9721 126.964 73.344 126.532C72.8447 126.186 72.2166 125.905 71.8462 125.494L67.5944 125.71C67.0146 125.991 66.6441 126.424 66.6925 126.705C66.7408 126.986 67.2722 127.202 67.9809 127.029L68.4963 152.188C68.5768 153.939 68.6734 156.468 68.6895 159.516C68.6895 160.553 68.6895 161.201 68.6895 161.655C68.6734 162.304 68.6895 162.65 68.6895 162.671C68.8506 164.941 96.3425 163.644 96.3425 163.644C96.3425 163.644 112.029 162.909 123.561 164.617C123.561 164.617 128.441 165.935 151.858 163.406C152.518 163.341 154.048 163.147 154.757 161.699C156.206 158.781 152.003 155.279 150.215 146.115C148.975 139.76 149.764 135.069 146.672 128.218C146.463 127.764 146.285 127.396 146.173 127.159C145.126 129.363 132.902 154.306 111.755 155.106C89.3689 155.971 74.568 129.082 74.1332 127.915Z" fill="#007F27" stroke="black" stroke-width="0.541667" stroke-miterlimit="10"/>
<path d="M50.8449 152.275C47.6077 146.309 49.5887 134.572 54.9357 129.082C59.9445 123.96 66.1129 126.402 66.6766 126.705C67.4657 127.115 67.7073 127.85 67.7073 127.85C67.8684 128.326 67.82 128.78 67.8039 128.953C67.6429 130.595 67.8523 132.303 67.6751 133.946C67.4335 136.129 67.7395 137.08 67.9006 143.802C68.0455 149.767 67.8039 149.097 67.9489 154.155C68.1421 160.812 68.577 161.936 67.8522 162.671C67.353 163.19 66.1934 163.709 56.9972 157.311C53.3252 154.739 51.473 153.42 50.8449 152.275Z" fill="#6A3800" stroke="#F2BE00" stroke-width="0.677083" stroke-miterlimit="10"/>
<path d="M165.419 152.275C167.754 147.131 167.271 141.727 167.062 139.501C166.852 137.188 166.659 135.091 165.676 132.908C162.633 126.164 155.466 126.316 147.51 126.489C146.447 126.51 145.529 126.575 144.852 127.461C142.758 130.206 145.303 137.836 147.429 143.996C151.037 154.501 152.84 159.753 156.271 160.359C160.217 161.05 163.873 155.69 165.419 152.275Z" fill="#6A3800" stroke="#F2BE00" stroke-width="0.677083" stroke-miterlimit="10"/>
<path d="M130.889 75.9969V82.6542C130.776 84.5779 130.647 86.5016 130.534 88.4253C130.55 89.2034 130.47 90.068 130.132 90.8461C130.116 90.8893 130.083 90.9325 130.067 90.9974C129.6 92.0565 128.747 93.2021 127.49 94.4557C127.007 94.9961 126.315 95.6013 125.332 96.2065C124.35 96.8117 123.078 97.3953 121.386 97.9141L111.61 103.836C111.127 104.117 110.435 104.442 109.565 104.658C109.13 104.766 108.083 104.982 106.698 104.809C104.057 104.442 100.562 102.648 99.4992 102.107C95.6661 100.184 90.0131 98.9083 87.7905 97.3305C87.7905 97.3305 87.7744 97.3305 87.2269 96.9414C86.2605 96.2713 85.2942 95.5797 84.3279 94.9096C83.6192 92.0997 82.9106 89.2898 82.2181 86.4799C81.8315 82.3083 81.445 78.1583 81.0746 73.9867C82.202 72.1711 82.202 70.831 82.1698 70.2474C82.1214 69.5773 81.9443 69.3612 81.751 67.8049C81.6866 67.2862 81.6544 66.8971 81.445 66.4216C81.1551 65.7732 80.8974 65.8164 80.6558 65.3625C80.1727 64.4547 80.9135 63.7198 80.6558 61.9474C80.4948 60.8667 80.1244 60.3911 80.3015 59.4401C80.3821 58.9862 80.5592 58.6187 80.5753 58.5971C80.9296 57.8622 81.2679 57.9703 81.5094 57.4299C81.8477 56.695 81.4128 56.0682 81.751 55.5711C82.0248 55.1604 82.3308 55.5062 82.7818 55.074C83.281 54.5984 83.12 53.9284 83.6353 53.3664C83.9897 52.9773 84.1668 53.1935 84.6661 52.8909C85.6324 52.2641 85.4714 51.0753 86.2927 50.5349C86.937 50.1242 87.1624 50.7726 87.9838 50.4484C89.1112 50.0161 89.079 48.6544 90.0936 48.3302C90.7701 48.1357 90.7862 48.7193 92.0263 48.7409C92.751 48.7409 92.896 48.5463 93.8945 48.568C94.3777 48.5896 94.7642 48.6328 95.1024 48.7409C95.5695 48.849 95.8594 49.0003 96.0043 49.0651C97.1156 49.519 97.7759 48.3302 99.1449 48.2437C100.272 48.1789 100.176 48.9786 101.979 49.3029C102.446 49.3893 103.284 49.519 104.331 49.3029C105.539 49.0435 105.716 48.6112 106.634 48.6544C107.359 48.6977 107.359 49.0003 108.502 49.3029C108.711 49.3677 109.662 49.6055 110.853 49.5406C112.126 49.4758 112.061 49.1732 113.157 49.2164C113.817 49.238 114.171 49.3893 114.735 49.1299C115.299 48.8922 115.331 48.5896 115.766 48.395C116.474 48.0924 116.764 48.6976 118.004 49.0435C119.373 49.4325 119.631 48.8273 120.903 49.3677C121.161 49.4758 121.467 49.6271 121.998 49.7784C122.449 49.9081 122.868 50.0161 123.384 49.9513C124.044 49.8648 124.028 49.6055 124.479 49.6271C124.752 49.6487 124.93 49.7351 125.993 50.5133C126.588 50.9672 126.894 51.1833 126.959 51.2482C128.151 52.3505 128.247 53.5393 128.956 53.6042C129.375 53.6258 129.568 53.2367 129.922 53.4312C130.212 53.6042 130.357 54.0364 130.47 54.4039C130.55 54.6417 130.695 55.2469 130.647 56.1115C130.583 57.1922 130.277 57.2786 130.341 57.9703C130.405 58.8133 130.856 58.9213 130.824 59.5914C130.792 60.0885 130.534 60.1318 130.035 61.126C129.649 61.9042 129.359 62.4878 129.423 63.1578C129.471 63.6766 129.697 63.763 129.665 64.2169C129.632 64.7573 129.326 64.8654 129.117 65.4273C128.875 66.119 128.875 67.1565 129.246 67.6969C129.713 68.3885 130.518 67.8698 130.824 68.5182C130.873 68.6263 130.953 68.8641 130.695 70.2258C130.55 71.0255 130.389 71.6523 130.277 72.0846L130.889 75.9969Z" fill="#6A3800" stroke="#F2BE00" stroke-width="0.541667" stroke-miterlimit="10" stroke-linecap="round" stroke-linejoin="round"/>
<path d="M160.362 37.7391C160.362 37.76 160.362 37.76 160.362 37.76C160.362 37.76 160.362 37.76 160.362 37.7391Z" stroke="#F2BE00" stroke-width="0.135417" stroke-linecap="round" stroke-linejoin="round"/>
<path d="M159.798 36.0532V36.074" stroke="#F2BE00" stroke-width="0.135417" stroke-linecap="round" stroke-linejoin="round"/>
<path d="M140.568 93.2452L141.599 90.9325" stroke="black" stroke-width="0.135417" stroke-miterlimit="10"/>
<path d="M141.422 93.5048C142.05 95.2556 140.89 91.2136 140.89 91.2136C140.89 91.2136 141.244 92.986 141.422 93.5048Z" fill="black" stroke="black" stroke-width="0.270833" stroke-miterlimit="10"/>
<path d="M141.293 94.1748L142.179 93.0725" stroke="black" stroke-width="0.270833" stroke-miterlimit="10" stroke-linecap="round"/>
<path d="M89.8199 132.044L100.144 132.865L104.363 138.355" stroke="black" stroke-width="0.270833" stroke-miterlimit="10" stroke-linecap="round" stroke-linejoin="round"/>
<path d="M126.653 131.546L119.889 132.886L116.056 138.117" stroke="black" stroke-width="0.270833" stroke-miterlimit="10" stroke-linecap="round" stroke-linejoin="round"/>
<path d="M81.2519 75.4997C80.1406 74.2676 78.0308 74.0947 77.1289 75.4565C76.6619 76.1481 76.6458 77.0127 76.6136 77.9421C76.5975 78.3528 76.5491 81.7895 78.5784 83.8861C79.2065 84.513 79.9313 85.2695 80.6077 84.9885C82.2505 84.2968 83.3617 77.8341 81.2519 75.4997Z" fill="#6A3800" stroke="#F2BE00" stroke-width="0.541667" stroke-miterlimit="10"/>
<path d="M82.0571 84.2103C82.0088 83.9077 82.1859 83.7348 82.1215 83.5186C82.0571 83.3025 81.8155 83.3673 81.6867 83.1296C81.5578 82.8918 81.6545 82.6108 81.5256 82.4811C81.3968 82.3298 81.2035 82.5244 81.0102 82.3947C80.817 82.265 80.817 81.9624 80.6559 81.8976C80.4949 81.8327 80.3821 82.1353 80.1567 82.1137C79.9312 82.1137 79.8345 81.8327 79.6896 81.8759C79.5285 81.9192 79.5124 82.2434 79.3192 82.3731C79.1259 82.5028 78.9487 82.3082 78.8199 82.4379C78.6911 82.5676 78.7877 82.8702 78.6427 83.108C78.5139 83.3457 78.2884 83.2593 78.2079 83.4754C78.1274 83.67 78.3045 83.8861 78.2562 84.1887C78.2079 84.4913 77.9824 84.5562 77.9824 84.7723C77.9824 84.9884 78.2079 85.0965 78.2562 85.3775C78.3045 85.6801 78.1274 85.853 78.1918 86.0692C78.2562 86.2853 78.4978 86.2205 78.6266 86.4582C78.7555 86.696 78.6588 86.977 78.7877 87.1067C78.9165 87.258 79.1098 87.0634 79.3031 87.1931C79.4963 87.3228 79.4963 87.6254 79.6574 87.6903C79.8184 87.7335 79.9312 87.4525 80.1567 87.4525C80.366 87.4525 80.4627 87.7119 80.6076 87.6687C80.7525 87.6254 80.7848 87.3228 80.9619 87.2147C81.1552 87.0851 81.3323 87.2796 81.4612 87.1499C81.59 87.0202 81.5095 86.7176 81.6383 86.4799C81.7672 86.2421 81.9927 86.3285 82.0732 86.134C82.1537 85.9395 81.9766 85.7017 82.0249 85.4207C82.0732 85.1181 82.2987 85.0749 82.2987 84.8371C82.3309 84.5994 82.1054 84.4913 82.0571 84.2103ZM80.1728 87.2147C79.1903 87.2147 78.4012 86.1124 78.4012 84.7939C78.4012 83.4538 79.1903 82.3731 80.1728 82.3731C81.1552 82.3731 81.9443 83.4754 81.9443 84.7939C81.9282 86.1124 81.1391 87.2147 80.1728 87.2147Z" fill="#127A17" stroke="#127A17" stroke-width="0.270833" stroke-miterlimit="10"/>
<path d="M80.3337 86.026C79.9794 85.8964 80.1082 85.5505 80.1888 85.5289C80.3498 85.4641 80.4626 85.745 80.5753 85.7018C80.833 85.5721 80.6719 85.2911 80.4303 85.3128C80.2371 85.3344 79.9955 84.6427 80.6075 84.9885C81.1229 85.2911 81.0424 84.4914 80.6075 84.5779C80.4142 84.6211 80.2693 84.232 80.9296 84.1456C81.139 84.124 81.2356 84.0591 81.2678 83.9727C81.4128 83.5188 81.0101 83.3458 80.8813 83.4755C80.8008 83.6052 80.6558 83.6484 80.5753 83.562C80.5109 83.4971 80.5109 83.3891 80.5431 83.2594C80.6075 83.1081 80.5431 82.9135 80.4142 82.8271C80.2854 82.7406 80.1405 82.7622 80.076 82.9135C80.0438 82.9784 80.0438 83.0432 80.0599 83.1081C79.5768 83.0648 79.1258 83.3242 78.9164 83.8646C78.7232 84.3185 78.7393 84.8589 78.9164 85.356C78.9809 84.7508 79.1258 83.3026 79.9955 83.6268C80.3498 83.7565 80.221 84.1023 80.1405 84.124C79.9794 84.1888 79.8667 83.9078 79.7539 83.951C79.4962 84.0807 79.6573 84.3617 79.8989 84.3401C80.0921 84.3185 80.3337 85.0102 79.7217 84.6643C79.2063 84.3617 79.2869 85.1615 79.7217 85.075C79.915 85.0318 79.9794 85.3344 79.303 85.4208C79.1097 85.4424 79.0131 85.5073 78.9809 85.5937C78.8359 86.0477 79.2385 86.2206 79.3674 86.0909C79.4479 85.9612 79.5929 85.918 79.6734 86.0044C79.7378 86.0693 79.7378 86.199 79.7056 86.307L79.6895 86.3286C79.6251 86.4799 79.6895 86.6745 79.8183 86.7609C79.9472 86.8474 80.0921 86.8258 80.1566 86.6745C80.1727 86.6312 80.1888 86.588 80.1888 86.5448C80.7041 86.6312 81.2034 86.3719 81.4289 85.7883C81.6221 85.3344 81.606 84.794 81.4289 84.2969C81.3484 84.9021 81.2034 86.3503 80.3337 86.026Z" fill="#127A17" stroke="#127A17" stroke-width="0.270833" stroke-miterlimit="10"/>
<path d="M80.8171 75.7807C80.5111 75.6943 80.0279 75.5862 79.432 75.6294C79.0133 75.6727 78.7234 75.6943 78.4496 75.9104C77.7731 76.4292 77.6765 77.6828 77.6604 77.9854" stroke="black" stroke-width="0.135417" stroke-miterlimit="10"/>
<path d="M80.4143 76.6454C79.6091 76.5589 78.8521 77.0344 78.4817 77.8558C77.9824 79.0014 78.2562 80.7522 79.0293 81.1628C79.6252 81.4871 80.3338 80.9251 80.6559 80.5576C80.7042 80.4928 81.0102 80.1469 80.9458 79.974C80.8492 79.7147 79.8829 80.4496 79.4963 79.974C79.2709 79.693 79.2547 79.023 79.4802 78.7204C79.8506 78.2016 80.9619 78.6339 80.9619 78.6339" stroke="black" stroke-width="0.135417" stroke-miterlimit="10"/>
<path d="M132.435 80.6441C134.416 81.3141 136.542 76.5373 136.735 74.7217C136.735 74.7001 136.735 74.6784 136.735 74.6784C136.848 73.5761 136.638 72.0847 136.075 71.393C135.012 70.0745 132.596 71.5443 131.871 72.4954C131.324 73.2087 130.728 74.2462 130.728 74.2462C130.696 74.311 130.583 74.5055 130.534 74.5704C129.906 75.7808 130.728 80.0821 132.435 80.6441Z" fill="#6A3800" stroke="#F2BE00" stroke-width="0.541667" stroke-miterlimit="10"/>
<path d="M131.968 73.9219C132.596 73.2735 133.578 72.4305 134.738 72.2576C134.979 72.2143 135.237 72.2143 135.447 72.4089C135.994 72.8844 135.978 74.2245 135.817 75.0459C135.753 75.4133 135.64 75.7159 135.575 75.8888C135.414 76.3427 134.738 77.618 134.947 77.1857" stroke="black" stroke-width="0.135417" stroke-miterlimit="10"/>
<path d="M133.643 77.3154C135.092 76.7318 135.753 75.1755 135.495 74.2677C135.269 73.4463 134.239 72.906 133.401 73.2302C133.127 73.3383 132.934 73.5112 132.789 73.6625" stroke="black" stroke-width="0.135417" stroke-miterlimit="10"/>
<path d="M132.081 74.9809C132.209 74.9377 132.403 74.8728 132.644 74.8296C133.095 74.7647 133.321 74.7215 133.514 74.916C133.723 75.1106 133.9 75.5429 133.788 75.9535C133.675 76.3642 133.305 76.6236 132.934 76.4723" stroke="black" stroke-width="0.135417" stroke-miterlimit="10"/>
<path d="M92.7994 69.5125C92.5739 69.4477 92.3806 69.5558 92.3323 69.5774C92.3162 69.5774 91.9136 69.8367 91.8814 70.3123C91.8491 70.7878 92.2196 71.2201 92.59 71.2849C92.9121 71.3498 93.3309 71.1336 93.4275 70.6797C93.5241 70.161 93.1859 69.6206 92.7994 69.5125Z" fill="#9F002E" stroke="white" stroke-width="0.135417" stroke-miterlimit="10"/>
<path d="M120.581 68.4102C120.179 68.2373 119.695 68.648 119.679 69.2099C119.647 69.6855 119.953 70.1394 120.324 70.1826C120.678 70.2258 121.016 69.88 121.064 69.4045C121.113 68.9506 120.871 68.5183 120.581 68.4102Z" fill="#9F002E" stroke="white" stroke-width="0.135417" stroke-miterlimit="10"/>
<path d="M114.075 67.3294C115.975 64.6708 118.101 63.7413 118.101 63.7413C118.471 63.59 121.451 62.3364 124.608 63.2442C125.236 63.4171 125.864 63.6981 126.025 64.3249C126.234 65.1895 125.429 66.227 125.139 66.5945C124.946 66.8538 124.076 67.913 122.739 67.9994C122.143 68.0426 122.176 67.8265 121.177 67.6536C119.905 67.4374 118.842 67.5887 117.875 67.74C117.086 67.8697 117.086 67.9346 116.394 67.9994C115.911 68.0426 114.058 68.2588 113.962 67.7184C113.914 67.5671 114.026 67.4158 114.075 67.3294Z" fill="white" stroke="black" stroke-width="0.270833" stroke-miterlimit="10"/>
<path d="M120.404 63.5901C120.678 63.5469 121.403 63.3956 122.079 64.0008C122.288 64.1953 122.755 64.5844 122.852 65.3409C122.949 66.0758 122.675 66.7891 122.305 67.1781C122.015 67.4807 121.693 67.524 121.274 67.5888C121.242 67.5888 121.193 67.5888 121.129 67.6104C120.903 67.632 120.533 67.632 119.889 67.5888C119.454 67.5456 119.228 67.5023 118.987 67.3078C118.971 67.2862 118.955 67.2862 118.922 67.2646C118.488 66.8539 118.343 65.8164 118.568 65.0599C118.922 63.8711 120.001 63.6766 120.404 63.5901Z" fill="#4A2B00" stroke="#663300" stroke-width="0.135417" stroke-miterlimit="10"/>
<path d="M113.608 67.9347C113.704 68.3238 114.542 68.2805 114.896 68.2589C114.654 68.2805 114.413 68.1509 114.284 67.8915C114.171 67.6537 114.187 67.416 114.187 67.3295C114.348 67.0917 114.493 66.854 114.654 66.6162C115.234 65.9678 115.798 65.4706 116.281 65.06C116.587 64.8006 117.167 64.3467 117.94 63.8928C118.471 63.5686 118.826 63.4173 118.826 63.3956C118.826 63.3956 117.634 63.9792 116.265 64.8438C116.265 64.8438 114.638 65.8597 113.688 67.5024C113.672 67.6105 113.575 67.7834 113.608 67.9347Z" fill="black" stroke="black" stroke-width="0.135417" stroke-miterlimit="10"/>
<path d="M85.8259 68.3021C85.5843 67.4376 87.2915 65.4058 89.1597 64.4764C93.2666 62.4446 98.2593 65.6652 98.1787 67.0917C98.1465 67.6537 97.2929 68.1725 96.7937 68.3454C96.1817 68.5615 95.4408 68.4318 95.2959 68.4102C95.1831 68.3886 94.6194 68.3021 94.6194 68.3021C94.6194 68.3021 93.8625 68.5831 93.476 68.7128C92.7995 68.9074 92.3164 68.8641 91.7205 68.8641C90.0777 68.8209 90.1421 69.037 88.741 68.9938C86.9855 68.9074 85.9869 68.8641 85.8259 68.3021Z" fill="white" stroke="black" stroke-width="0.40625" stroke-miterlimit="10"/>
<path d="M90.2871 65.9461C90.1744 67.0052 91.028 67.7834 91.0763 67.8266C92.0748 68.7128 93.9913 68.4534 94.4262 67.1565C94.7 66.3568 94.3295 65.3409 93.8303 64.7789C92.9284 63.7847 91.4145 64.0657 90.722 64.9302C90.6253 65.0599 90.3515 65.4058 90.2871 65.9461Z" fill="#4A2B00" stroke="black" stroke-width="0.135417" stroke-miterlimit="10"/>
<path d="M95.8916 65.1246C95.8594 65.2111 97.1317 65.9028 97.0995 66.8538C97.0673 67.6968 96.0204 68.1939 96.101 68.3668C96.1654 68.5181 96.874 68.2155 97.486 67.6752C97.792 67.4158 97.937 67.2861 97.9692 67.0916C98.0819 66.227 95.9399 65.0166 95.8916 65.1246Z" fill="black" stroke="black" stroke-width="0.135417" stroke-miterlimit="10"/>
<path d="M91.2212 65.946C91.1889 66.8538 91.8171 67.6535 92.5096 67.6103C93.0894 67.567 93.637 66.9618 93.6692 66.1189C93.7014 65.3408 93.2665 64.6707 92.7673 64.4978C92.0747 64.2816 91.2695 64.9733 91.2212 65.946Z" fill="black" stroke="black" stroke-width="0.135417" stroke-miterlimit="10"/>
<path d="M113.946 65.4058C114.96 64.3683 116.813 62.7472 119.438 61.9043C122.353 60.9748 124.785 61.4504 126.057 61.8394" stroke="black" stroke-width="0.135417" stroke-miterlimit="10"/>
<path d="M118.52 64.8655C118.246 65.6436 118.391 66.6595 118.826 67.2431C119.148 67.6754 119.679 67.6754 120.742 67.6754C121.676 67.6754 122.143 67.6754 122.466 67.2863C122.868 66.8108 123.045 66.011 122.933 65.3194C122.707 63.828 121.225 63.4605 121.048 63.4173C120.887 63.3741 120.146 63.2228 119.389 63.7631C119.116 63.9793 118.729 64.2603 118.52 64.8655Z" stroke="#050505" stroke-width="0.135417" stroke-miterlimit="10"/>
<path d="M91.4305 65.449C91.4305 65.7083 91.6077 65.8813 91.7849 65.9029C91.9942 65.9245 92.2036 65.73 92.2036 65.4706C92.2036 65.1896 91.9942 64.9735 91.7849 64.9951C91.6077 64.9951 91.4305 65.1896 91.4305 65.449Z" fill="white" stroke="white" stroke-width="0.135417" stroke-miterlimit="10"/>
<path d="M98.871 66.292C98.871 66.3352 98.8066 66.573 98.8227 66.573C98.8227 66.573 98.871 66.4217 98.9032 66.292C98.1946 65.4922 95.4567 62.5959 91.527 62.6607C91.1565 62.6607 87.2107 62.7904 85.874 64.8654C85.7451 65.0599 85.4552 65.5787 84.9237 65.7516C83.9574 66.0758 83.1199 64.8654 83.0072 65.0816C82.8784 65.2977 83.8769 66.7027 84.4889 66.8972C84.7788 66.9836 85.0848 66.9836 85.0848 66.9836C85.4069 66.9188 85.6807 66.9404 85.7129 66.9404C86.1155 66.962 87.0658 65.3193 88.2092 64.498C88.4669 64.3251 88.8696 64.1738 89.6587 63.8495C90.3674 63.5902 90.9472 63.3524 91.6397 63.2443C91.9618 63.2011 92.7027 63.1146 93.975 63.3956C96.8256 64.0224 98.9516 65.7084 98.871 66.292Z" fill="black" stroke="black" stroke-width="0.135417" stroke-miterlimit="10"/>
<path d="M85.6487 68.4535C85.4554 68.5183 85.0528 68.6264 84.5857 68.4751C84.2797 68.3886 84.0543 68.2157 83.9093 68.086" stroke="black" stroke-width="0.135417" stroke-miterlimit="10"/>
<path d="M83.5389 62.0554C83.6517 62.358 85.8742 59.9588 89.3208 59.8075C93.5404 59.6346 96.2139 61.3637 96.2139 61.3637C96.9386 61.8393 98.1143 62.7471 99.29 62.1851C99.6604 62.0122 100.417 61.5151 100.417 60.9098C100.466 59.1374 94.3618 55.7872 88.9181 57.7757C85.697 58.9429 83.4262 61.7528 83.5389 62.0554Z" fill="black" stroke="black" stroke-width="0.135417" stroke-miterlimit="10"/>
<path d="M128.344 59.5699C128.231 59.8509 125.703 57.8407 121.982 58.0785C117.408 58.3595 114.622 60.2832 114.622 60.2832C113.865 60.8019 112.641 61.7746 111.337 61.3855C110.934 61.2558 110.097 60.8884 110.048 60.3048C109.903 58.6405 116.329 54.8363 122.305 56.0899C125.848 56.8681 128.457 59.2673 128.344 59.5699Z" fill="black" stroke="black" stroke-width="0.135417" stroke-miterlimit="10"/>
<path d="M111.256 65.1246C111.256 65.1246 110.354 66.9619 110.29 69.5124C110.209 72.2575 111.143 74.3108 111.143 74.3108C111.143 74.3108 110.225 72.2575 110.29 69.5124C110.354 66.9619 111.256 65.1246 111.256 65.1246Z" stroke="black" stroke-width="0.270833" stroke-miterlimit="10"/>
<path d="M102.479 65.5354C102.35 65.6435 103.252 66.9187 103.687 69.2747C104.283 72.4089 103.558 74.8081 103.751 74.8729C103.96 74.9378 105.056 72.4737 104.653 69.7503C104.283 67.1133 102.64 65.3841 102.479 65.5354Z" fill="black" stroke="black" stroke-width="0.270833" stroke-miterlimit="10"/>
<path d="M111.433 77.8558C111.031 77.4667 109.646 76.1915 107.681 76.3212C105.41 76.4509 103.993 78.3313 103.687 78.7636" stroke="black" stroke-width="0.270833" stroke-miterlimit="10" stroke-linecap="round"/>
<path d="M102.559 78.5691C102.511 78.5258 102.447 78.4826 102.35 78.4178C102.205 78.3313 101.706 78.1152 100.772 78.6123C100.079 78.9797 99.0644 79.5417 99 80.5792C98.9517 81.2709 99.3382 81.8329 99.5154 82.0922C99.9824 82.7839 100.578 83.0001 101.19 83.2162C101.641 83.3675 102.028 83.4323 102.286 83.454" stroke="black" stroke-width="0.270833" stroke-miterlimit="10"/>
<path d="M103.026 81.6382C102.769 81.7895 102.559 81.9408 102.575 82.1354C102.575 82.3083 102.769 82.3515 102.753 82.4596C102.736 82.6109 102.286 82.6325 101.899 82.5676C101.657 82.5244 101.319 82.438 101.287 82.265C101.255 82.0489 101.657 81.7247 102.044 81.6166C102.35 81.5301 102.72 81.5518 103.365 81.876C104.041 82.2434 104.444 82.6541 104.701 82.8702C105.732 83.7564 106.924 83.6484 107.842 83.5619C108.357 83.5187 110.048 83.3674 111.063 82.265C111.143 82.1786 111.578 81.7031 112.206 81.4869C112.561 81.3788 112.786 81.4005 112.996 81.4653C113.253 81.5734 113.43 81.7463 113.527 81.8544C113.672 82.0057 113.817 82.2218 113.801 82.265C113.769 82.3083 113.591 82.0921 113.334 82.0921C113.092 82.0921 112.947 82.2867 112.835 82.3731C112.835 82.3731 112.577 82.5028 111.401 81.9624" stroke="black" stroke-width="0.270833" stroke-miterlimit="10"/>
<path d="M113.64 83.0864C114.816 82.9783 115.846 82.438 116.056 81.5302C116.362 80.1901 114.799 78.2015 113.269 77.8989C112.883 77.8125 112.545 77.8557 112.287 77.9205" stroke="black" stroke-width="0.270833" stroke-miterlimit="10"/>
<path d="M106.763 77.3585C107.745 76.5587 108.695 76.4939 108.679 76.3858C108.663 76.2561 107.471 76.3642 106.183 76.8613C105.184 77.2504 104.315 77.6395 103.687 78.7634C103.445 79.1957 103.042 79.9306 103.139 80.7087C103.413 82.9351 107.536 83.6483 107.552 83.5835C107.568 83.5403 105.136 83.2809 104.75 81.5949C104.46 80.19 105.635 78.2663 106.763 77.3585Z" fill="black" stroke="black" stroke-width="0.270833" stroke-miterlimit="10"/>
<path d="M87.0175 66.0541C87.0497 66.0758 86.7921 66.4432 86.5666 67.0268C86.3733 67.5239 86.2767 67.7833 86.3411 67.9995C86.4699 68.5182 87.243 68.6911 87.2913 68.6911C87.3235 68.6911 87.4041 68.7127 87.5168 68.756C87.6456 68.7992 87.8872 68.9073 87.8872 68.9289C87.8711 68.9937 87.1142 68.7992 86.4055 68.5182C86.0834 68.3885 85.9707 68.3237 85.9063 68.1724C85.8096 67.8698 86.019 67.4807 86.2445 67.07C86.3894 66.789 86.5344 66.6161 86.8243 66.2487C86.9531 66.0974 87.0014 66.0541 87.0175 66.0541Z" fill="black" stroke="black" stroke-width="0.135417" stroke-miterlimit="10"/>
<path d="M125.139 66.6378C125.091 66.5945 125.735 65.7516 125.558 64.9086C125.316 63.8495 123.899 63.3307 123.174 63.0713C122.933 62.9849 122.868 62.9849 122.868 62.9633C122.868 62.92 124.253 63.2227 125.477 63.9575C125.622 64.044 125.767 64.1521 125.864 64.3682C126.186 65.1896 125.203 66.681 125.139 66.6378Z" fill="black" stroke="black" stroke-width="0.135417" stroke-miterlimit="10"/>
<path d="M119.18 65.5354C119.18 66.4865 119.824 67.1781 120.453 67.243C121.161 67.3078 121.902 66.5729 121.934 65.6003C121.966 64.5844 121.193 63.763 120.453 63.8279C119.824 63.8927 119.18 64.5844 119.18 65.5354Z" fill="black" stroke="black" stroke-width="0.135417" stroke-miterlimit="10"/>
<path d="M120.71 64.5412C120.71 64.8005 120.887 64.9735 121.064 64.9951C121.274 65.0167 121.483 64.8222 121.483 64.5628C121.483 64.2818 121.274 64.0656 121.064 64.0873C120.887 64.1089 120.71 64.3034 120.71 64.5412Z" fill="white" stroke="white" stroke-width="0.135417" stroke-miterlimit="10"/>
<path d="M134.593 79.5848C134.512 79.239 134.77 79.0012 134.657 78.7851C134.545 78.5473 134.19 78.6338 133.981 78.3744C133.772 78.115 133.9 77.7692 133.723 77.6179C133.53 77.4666 133.24 77.7043 132.934 77.5746C132.628 77.4449 132.612 77.0775 132.387 77.0343C132.145 76.991 131.984 77.3369 131.646 77.3585C131.307 77.3801 131.146 77.0559 130.921 77.1423C130.679 77.2072 130.679 77.5962 130.373 77.7692C130.083 77.9421 129.81 77.7259 129.616 77.8989C129.423 78.0718 129.584 78.4176 129.375 78.6986C129.182 78.9796 128.843 78.9147 128.747 79.1741C128.65 79.4119 128.924 79.6496 128.859 79.9955C128.795 80.3413 128.473 80.4494 128.473 80.7088C128.473 80.9681 128.827 81.0546 128.924 81.3788C129.004 81.7246 128.747 81.9624 128.859 82.1785C128.972 82.4163 129.326 82.3298 129.552 82.5892C129.777 82.8486 129.632 83.1944 129.826 83.3457C130.019 83.497 130.309 83.2593 130.615 83.389C130.921 83.5186 130.937 83.8861 131.179 83.9293C131.42 83.9726 131.581 83.6267 131.919 83.6051C132.225 83.5835 132.387 83.8645 132.612 83.7996C132.837 83.7348 132.854 83.3673 133.127 83.216C133.417 83.0431 133.691 83.2593 133.884 83.0864C134.078 82.9134 133.933 82.5676 134.126 82.2866C134.319 82.0056 134.657 82.0705 134.77 81.8327C134.883 81.595 134.593 81.3572 134.657 81.0114C134.722 80.6655 135.06 80.5574 135.044 80.2981C135.028 80.0171 134.673 79.9306 134.593 79.5848ZM131.871 83.3025C130.389 83.4106 129.133 82.2218 129.069 80.6655C129.004 79.1093 130.164 77.7476 131.63 77.6395C133.111 77.5314 134.367 78.7202 134.432 80.2765C134.496 81.8327 133.337 83.1944 131.871 83.3025Z" fill="#FFCC2A" stroke="#FFCC2A" stroke-width="0.270833" stroke-miterlimit="10"/>
<path d="M132.064 81.9192C131.517 81.8111 131.694 81.4004 131.823 81.3356C132.048 81.2491 132.242 81.5733 132.419 81.4869C132.805 81.314 132.564 80.9897 132.177 81.0546C131.887 81.0978 131.485 80.3197 132.419 80.6655C133.224 80.9681 133.047 80.0387 132.403 80.1684C132.097 80.2332 131.871 79.8009 132.87 79.628C133.176 79.5848 133.321 79.4767 133.369 79.3903C133.578 78.8283 132.95 78.6986 132.773 78.8499C132.644 79.0228 132.451 79.066 132.322 78.9796C132.225 78.9147 132.209 78.7851 132.258 78.6338C132.258 78.6338 132.258 78.6338 132.258 78.6121C132.338 78.4392 132.258 78.2231 132.048 78.115C131.855 78.0069 131.63 78.0718 131.533 78.2447C131.501 78.3095 131.485 78.396 131.517 78.4608C130.792 78.4608 130.116 78.8283 129.81 79.4767C129.552 80.0171 129.6 80.6655 129.89 81.2275C129.971 80.5142 130.116 78.8067 131.452 79.0877C132 79.1957 131.823 79.6064 131.694 79.6713C131.468 79.7577 131.275 79.4335 131.098 79.52C130.712 79.6929 130.953 80.0171 131.34 79.9522C131.63 79.909 132.032 80.6871 131.098 80.3413C130.293 80.0387 130.47 80.9681 131.114 80.8384C131.42 80.7736 131.517 81.1194 130.502 81.2707C130.196 81.314 130.067 81.4004 130.019 81.5085C129.81 82.0705 130.438 82.2002 130.615 82.0489C130.615 82.0489 130.615 82.0489 130.631 82.0272C130.76 81.8543 130.953 81.8111 131.082 81.8976C131.179 81.9624 131.195 82.1137 131.146 82.2434C131.146 82.265 131.13 82.265 131.13 82.265C131.05 82.4379 131.13 82.6541 131.34 82.7621C131.533 82.8702 131.758 82.8054 131.855 82.6325C131.887 82.5892 131.887 82.5244 131.887 82.4812C132.676 82.5244 133.401 82.1569 133.739 81.4653C133.997 80.9033 133.949 80.2765 133.659 79.7145C133.546 80.471 133.401 82.1786 132.064 81.9192Z" fill="#FFCC2A" stroke="#FFCC2A" stroke-width="0.270833" stroke-miterlimit="10"/>
<path d="M121.161 61.6015C122.562 61.4069 123.947 62.1418 125.397 62.8983C126.218 63.3306 126.653 63.6548 127.201 63.4171C127.603 63.2442 128.505 62.5525 128.747 62.3796C128.827 62.3147 128.859 62.2715 128.876 62.2931C128.908 62.3364 128.264 63.6765 127.233 64.0007C127.039 64.0655 126.347 64.2817 125.928 63.8061C125.783 63.6332 125.735 63.4387 125.509 63.2874C125.284 63.1145 125.139 63.1577 124.865 63.0929C124.479 62.9848 124.253 62.7686 124.092 62.639C123.11 61.9257 120.726 62.4444 120.71 62.2715C120.694 62.1851 121.29 62.0338 121.29 61.9689C121.29 61.9257 120.919 61.9257 120.565 62.0121C119.663 62.1851 118.987 62.6606 118.987 62.6822C118.971 62.6606 119.873 61.7744 121.161 61.6015Z" fill="black" stroke="black" stroke-width="0.135417" stroke-miterlimit="10"/>
<path d="M128.682 60.5858C128.682 60.7371 128.666 60.9749 128.602 61.2775C128.247 62.7905 126.685 63.6551 126.379 63.266C126.299 63.158 126.283 62.9634 126.315 62.8121C126.363 62.596 126.54 62.5095 126.685 62.4014C127.152 62.0772 127.442 61.6233 127.426 61.6017C127.41 61.5585 125.896 63.0499 125.767 62.8554C125.687 62.7257 126.347 61.7962 126.283 61.7098C126.218 61.6233 125.332 62.7041 125.268 62.6176C125.252 62.596 125.332 62.4879 125.397 62.2501C125.509 61.8827 125.542 61.4504 125.461 61.4072C125.332 61.3423 124.849 62.4879 124.833 62.4663C124.817 62.4663 124.93 62.2501 124.978 61.9259C125.01 61.7098 125.01 61.3639 124.946 61.3423C124.817 61.2775 124.495 62.2718 124.398 62.2069C124.35 62.1853 124.414 61.9908 124.366 61.6882C124.334 61.4504 124.237 61.1694 124.157 61.1694C124.028 61.191 124.044 62.2285 123.947 62.2285C123.899 62.2285 123.867 62.0772 123.835 61.9043C123.722 61.4504 123.77 61.2559 123.69 61.191C123.561 61.083 123.142 61.3856 123.094 61.7314C123.013 62.5744 125.123 64.2819 126.862 63.6767C127.104 63.5903 127.829 63.266 128.28 62.315C128.457 61.9259 128.537 61.5585 128.57 61.2991" fill="black"/>
<path d="M128.682 60.5858C128.682 60.7371 128.666 60.9749 128.602 61.2775C128.247 62.7905 126.685 63.6551 126.379 63.266C126.299 63.158 126.283 62.9634 126.315 62.8121C126.363 62.596 126.54 62.5095 126.685 62.4014C127.152 62.0772 127.442 61.6233 127.426 61.6017C127.41 61.5585 125.896 63.0499 125.767 62.8554C125.687 62.7257 126.347 61.7962 126.283 61.7098C126.218 61.6233 125.332 62.7041 125.268 62.6176C125.252 62.596 125.332 62.4879 125.397 62.2501C125.509 61.8827 125.542 61.4504 125.461 61.4072C125.332 61.3423 124.849 62.4879 124.833 62.4663C124.817 62.4663 124.93 62.2501 124.978 61.9259C125.01 61.7098 125.01 61.3639 124.946 61.3423C124.817 61.2775 124.495 62.2718 124.398 62.2069C124.35 62.1853 124.414 61.9908 124.366 61.6882C124.334 61.4504 124.237 61.1694 124.157 61.1694C124.028 61.191 124.044 62.2285 123.947 62.2285C123.899 62.2285 123.867 62.0772 123.835 61.9043C123.722 61.4504 123.77 61.2559 123.69 61.191C123.561 61.083 123.142 61.3856 123.094 61.7314C123.013 62.5744 125.123 64.2819 126.862 63.6767C127.104 63.5903 127.829 63.266 128.28 62.315C128.457 61.9259 128.537 61.5585 128.57 61.2991" stroke="black" stroke-width="0.135417" stroke-miterlimit="10"/>
<path d="M85.6486 62.8337C85.6647 62.7256 86.1479 62.6824 86.5183 62.704C87.5813 62.7688 88.8858 63.3092 89.2401 63.1147C89.2562 63.1147 89.3367 63.0498 89.4173 63.0066C89.6428 62.8769 89.7555 62.7904 89.7555 62.7688C89.7555 62.6824 89.3529 62.6824 88.7731 62.5311C88.5798 62.4662 88.4993 62.4446 88.2899 62.3582C87.9356 62.2285 86.8243 61.861 86.7921 61.9691C86.7277 62.1852 90.3836 63.1147 90.6252 63.0714C90.6413 63.0714 90.6413 63.0714 90.6413 63.0498C90.6735 62.9417 89.3206 62.1636 89.3528 62.0556C89.369 62.0123 89.7233 62.0772 90.0776 62.2717C90.4963 62.4878 90.7057 62.7688 91.0761 62.7472C91.1083 62.7472 91.3016 62.7472 91.3177 62.6391C91.3338 62.5311 91.1083 62.3582 91.1083 62.3582C91.1083 62.3582 91.4466 62.704 91.511 62.6175C91.5593 62.5527 91.4466 62.2285 91.4466 62.2285C91.4466 62.2285 91.5432 62.1636 91.5754 62.1204C91.672 62.0555 91.817 62.0339 91.9458 62.0988C92.0425 62.142 92.0586 62.2285 92.1552 62.2501C92.2357 62.2717 92.3001 62.2501 92.3163 62.2285C92.4129 62.1852 92.4129 62.142 92.4773 62.0988C92.6545 62.0123 92.8638 62.142 92.8638 62.142C93.0571 61.9475 93.0893 61.9691 93.0893 61.9691C93.1859 61.9907 93.1698 62.1852 93.2987 62.3798C93.3309 62.423 93.5242 62.6824 93.7335 62.6391C93.8624 62.6175 93.8463 62.5095 94.0717 62.4014C94.1684 62.3365 94.2811 62.2933 94.4261 62.2933C94.5871 62.3149 94.6032 62.423 94.7482 62.423C94.9092 62.423 94.9575 62.2933 95.0542 62.3365C95.1669 62.4014 95.1508 62.5959 95.2313 62.5959C95.2313 62.5959 95.2796 62.5959 95.4729 62.3149C95.4729 62.3149 95.6179 62.2069 95.6823 62.2717C95.7306 62.3149 95.6984 62.4878 95.7145 62.5095C95.7467 62.5311 95.8756 62.142 95.8917 62.1636C95.9078 62.1636 95.8756 62.2285 95.8917 62.3365C95.9078 62.4446 95.9883 62.5527 96.0205 62.5311C96.0849 62.5095 96.0688 62.0772 96.0688 62.0772C96.0688 62.0772 96.2621 62.142 96.3426 62.2717C96.3909 62.3582 96.3426 62.423 96.3426 62.6608C96.3426 62.985 96.4231 63.0714 96.3748 63.2444C96.3748 63.2444 96.3426 63.374 96.2299 63.4821C95.8755 63.8279 94.2167 62.8985 92.8799 62.7472C92.5578 62.704 92.0586 62.7904 91.0278 62.9634C89.3851 63.2443 88.8053 63.547 87.7423 63.4605C87.1464 63.3957 86.7599 63.266 86.2284 63.0498C85.9868 63.0714 85.6325 62.9201 85.6486 62.8337Z" fill="black" stroke="black" stroke-width="0.135417" stroke-miterlimit="10"/>
<path d="M90.3997 65.9461C90.287 66.9188 91.0923 67.6321 91.1406 67.6753C92.0908 68.4967 93.9107 68.2373 94.3295 67.0701C94.5871 66.3352 94.2328 65.4058 93.7658 64.887C92.8961 63.9576 91.4788 64.2386 90.8185 65.0167C90.7218 65.1248 90.4641 65.449 90.3997 65.9461Z" stroke="#663300" stroke-width="0.135417" stroke-miterlimit="10"/>
<path d="M92.3324 69.8367C92.268 69.8799 92.1553 70.0096 92.1714 70.0961C92.2036 70.269 92.5418 70.1609 92.6706 70.4203C92.7995 70.658 92.6062 70.9823 92.7028 71.0903C92.7995 71.1984 93.1216 71.0039 93.2343 70.658C93.2504 70.6364 93.3309 70.3338 93.2021 70.0312C93.1055 69.8151 92.9444 69.7286 92.88 69.707C92.88 69.707 92.5901 69.5989 92.3324 69.8367Z" fill="#0DE1FF" stroke="#3B005B" stroke-width="0.135417" stroke-miterlimit="10"/>
<path d="M120.356 68.6479C120.291 68.7127 120.114 68.8856 120.146 69.0369C120.179 69.2315 120.533 69.1234 120.63 69.3612C120.742 69.6422 120.388 70.0528 120.469 70.1609C120.533 70.2474 120.791 70.0745 120.936 69.8367C121 69.7502 121.032 69.6638 121.048 69.6206C121.081 69.5341 121.129 69.3828 121.113 69.1883C121.097 68.9937 121.016 68.864 120.984 68.8208C120.92 68.7343 120.855 68.6695 120.807 68.6479C120.742 68.6047 120.678 68.5614 120.597 68.5398C120.485 68.5614 120.404 68.6263 120.356 68.6479Z" fill="#0DE1FF" stroke="#3B005B" stroke-width="0.135417" stroke-miterlimit="10"/>
<path d="M120.662 68.2588C120.211 68.0643 119.663 68.5398 119.631 69.1883C119.599 69.7286 119.937 70.2474 120.356 70.2906C120.758 70.3338 121.145 69.9448 121.193 69.3828C121.242 68.864 120.984 68.3885 120.662 68.2588Z" stroke="black" stroke-width="0.135417" stroke-miterlimit="10"/>
<path d="M92.8155 69.4476C92.574 69.3828 92.3646 69.4908 92.3163 69.5124C92.3002 69.5341 91.8492 69.7934 91.817 70.3122C91.7848 70.8309 92.1874 71.3065 92.5901 71.3713C92.9444 71.4362 93.3953 71.1984 93.492 70.7013C93.6047 70.1609 93.2343 69.5557 92.8155 69.4476Z" stroke="black" stroke-width="0.135417" stroke-miterlimit="10"/>
<path d="M100.127 91.8404C100.143 91.7108 102.527 92.7266 105.04 91.1488C105.362 90.9543 105.619 90.7381 105.829 90.5652C106.102 90.2842 106.231 90.0464 106.392 90.0897C106.553 90.1329 106.586 90.4787 106.682 90.7597C106.988 91.5811 107.955 91.8621 108.534 91.8404C109.436 91.8188 110.225 91.0623 110.564 90.7597C111.031 90.3058 111.288 89.9167 111.627 90.0032C111.933 90.0897 111.981 90.4571 112.255 90.8462C113.044 91.9485 114.558 91.6243 114.88 91.5378C116.04 91.2785 116.619 90.4571 116.732 90.6516C116.861 90.8678 116.056 92.0998 115.283 92.9644C114.96 93.3102 114.606 93.6345 113.914 94.2397C112.899 95.1259 112.625 95.2555 112.432 95.342C111.836 95.5798 111.723 95.3852 111.16 95.6014C110.435 95.8824 110.322 96.3363 109.807 96.6821C109.597 96.8118 109.195 97.1144 106.264 95.6662C105.329 95.1907 105.056 95.0178 105.072 94.9746C105.088 94.8881 106.892 96.3147 108.921 95.8608C110.37 95.5365 111.546 94.3477 111.611 94.4774C111.643 94.5639 110.999 95.1042 111.047 95.2339C111.111 95.3852 112.11 94.8881 113.092 94.1532C113.575 93.7858 113.624 93.6777 114.751 92.6618C115.83 91.6675 116.378 91.2136 116.362 91.1488C116.329 91.0839 115.734 91.7972 114.848 91.9485C113.253 92.2295 112.561 90.3058 111.224 90.7381C110.66 90.911 110.805 91.2569 109.742 91.8404C109.034 92.2295 108.389 92.5753 107.745 92.2727C107.069 91.9485 106.65 91.3001 106.65 91.3001C106.457 90.9975 106.376 90.7597 106.199 90.7165C105.877 90.6733 105.587 91.3649 105.474 91.5595C104.524 93.4399 100.111 92.0134 100.127 91.8404Z" fill="black" stroke="black" stroke-width="0.135417" stroke-miterlimit="10"/>
<path d="M106.054 95.4068C106.022 95.5365 103.832 94.7151 101.706 93.7209C99.9019 92.8563 99.7892 92.6185 99.757 92.4456C99.3382 90.6516 103.252 86.2422 105.925 87.1717C106.57 87.3878 106.908 87.8633 107.826 87.9066C108.953 87.9498 109.356 87.3013 110.515 87.2149C111.337 87.15 111.917 87.431 112.867 87.8849C114.928 88.8792 116.313 90.4787 116.265 90.5868C116.201 90.7164 113.817 87.3662 110.999 87.8633C109.984 88.0362 109.485 88.5982 108.18 88.5118C107.761 88.4901 107.423 88.3821 107.343 88.3388C106.409 88.0362 106.119 87.5607 105.635 87.323C104.411 86.7394 102.962 88.2524 102.076 89.1602C101.706 89.5493 101.303 90.2625 100.53 91.7107C100.482 91.7972 100.385 91.9917 100.401 92.2079C100.433 92.6834 100.997 92.9644 101.641 93.267C102.672 93.7641 104.138 94.4341 104.572 94.6287C105.072 94.8448 106.07 95.3203 106.054 95.4068Z" fill="black" stroke="black" stroke-width="0.270833" stroke-miterlimit="10"/>
<path d="M112.303 68.3452C112.158 67.7833 113.285 66.8106 113.285 66.8106C113.285 66.8106 111.917 68.0426 112.094 68.6046C112.239 69.0801 113.382 68.864 113.382 68.7775C113.382 68.7127 112.432 68.8208 112.303 68.3452Z" fill="black" stroke="#663300" stroke-width="0.135417" stroke-miterlimit="10"/>
<path d="M99.7891 66.4649C99.7891 66.4649 101.384 67.5457 101.303 68.1293C101.222 68.6696 99.7086 68.6912 99.6925 68.5832C99.6764 68.4967 100.643 68.3886 100.707 67.8699C100.707 67.8699 100.772 67.3511 99.7891 66.4649Z" fill="black" stroke="#663300" stroke-width="0.135417" stroke-miterlimit="10"/>
</svg>
